<svg width="1156" height="298" viewBox="0 0 1156 298" fill="none" xmlns="http://www.w3.org/2000/svg">
<rect width="1156" height="298" rx="8" fill="#020F18"/>
<path d="M23 31H37.7977L55.6707 81.6507L72.589 31H85.9468L102.763 81.6507L120.738 31H135.536L110.643 99.7091H95.2666L79.3108 51.3202L63.1673 99.7091H47.8845L23 31Z" fill="white"/>
<path d="M143.454 31H157.101V57.3064H202.363V31H216.01V99.7091H202.363V69.0869H157.101V99.7091H143.454V31Z" fill="white"/>
<path d="M262.61 31H279.137L320.181 99.7091H304.413L296.055 85.1832H245.699L237.428 99.7091H221.668L262.61 31ZM289.427 73.4027L270.975 40.7185L252.328 73.4027H289.427Z" fill="white"/>
<path d="M330.781 42.6805H300.99V31H374.321V42.6807H344.429V99.7092H330.781V42.6805Z" fill="white"/>
<path d="M695 29.5699H709.805L727.678 80.2206L744.597 29.5699H757.955L774.771 80.2206L792.746 29.5699H807.544L782.651 98.2789H767.274L751.319 49.8901L735.175 98.2789H719.892L695 29.5699Z" fill="white"/>
<path d="M804.213 63.9251C804.213 42.3302 820.364 28 844.772 28C869.085 28 885.33 42.33 885.33 63.9251C885.33 85.5201 869.085 99.8501 844.772 99.8501C820.364 99.8501 804.213 85.5201 804.213 63.9251ZM871.683 63.9251C871.683 49.0077 860.915 39.6807 844.771 39.6807C828.628 39.6807 817.86 49.0077 817.86 63.9251C817.86 78.8425 828.628 88.0695 844.771 88.0695C860.915 88.0695 871.683 78.8465 871.683 63.9251Z" fill="white"/>
<path d="M892.917 29.5699H945.77C959.707 29.5699 967.399 37.2265 967.399 47.7282C967.399 58.7215 958.462 65.0033 945.77 65.0033L938.664 65.1033V65.299C954.518 66.378 961.053 75.9007 972.493 98.2789H956.631C944.142 75.4092 940.871 69.1273 928.859 69.1273H906.463L906.565 98.2789H892.917V29.5699ZM942.413 57.7424C950.386 57.7424 953.751 54.7972 953.751 49.7901C953.751 43.704 950.293 41.0545 942.413 41.0545H906.369L906.463 57.7422L942.413 57.7424Z" fill="white"/>
<path d="M979.916 29.5699H993.563V67.6568L1038.06 29.5699H1057.28L1024.79 57.6426L1059.58 98.2789H1041.61L1014.99 65.9864L993.563 83.7532V98.2791H979.916L979.916 29.5699Z" fill="white"/>
<path d="M1055.02 76.3102H1069C1068.91 83.3555 1077.31 87.9817 1091.1 87.9817C1106.68 87.9817 1115.28 85.0914 1115.28 78.7216C1115.28 60.4917 1056.82 81.6159 1056.82 50.2694C1056.82 36.4734 1071.07 28.949 1091.57 28.949C1113.1 28.949 1127.27 38.2092 1127.37 52.1976H1113.67C1113.67 45.0581 1105.36 40.428 1091.95 40.428C1078.26 40.428 1070.41 43.3224 1070.41 49.111C1070.41 66.0881 1128.78 46.4091 1128.78 78.1443C1128.78 92.2271 1114.14 99.559 1091.66 99.559C1069.09 99.559 1054.83 90.1063 1055.02 76.3102Z" fill="white"/>
<path d="M25.784 275L23.112 267H24.664L25.912 271.272C25.96 271.432 26.296 272.648 26.552 273.624C26.728 272.84 27 271.656 27.096 271.272L28.168 267H29.512L30.568 271.272C30.696 271.8 30.92 272.808 31.096 273.624C31.336 272.696 31.544 271.912 31.736 271.272L33.016 267H34.568L31.896 275H30.344L29.272 270.872C29.192 270.568 28.984 269.576 28.824 268.776C28.68 269.528 28.52 270.344 28.392 270.872L27.352 275H25.784ZM35.7435 275V263.8H37.1835V268.2C37.6315 267.24 38.5275 266.808 39.6475 266.808C40.7035 266.808 41.4555 267.096 42.0315 267.704C42.6395 268.36 42.6555 269.368 42.6555 270.216V275H41.1675V270.296C41.1675 269.56 41.1835 268.936 40.6875 268.472C40.2395 268.024 39.7115 268.008 39.2635 268.008C38.5435 268.008 37.1835 268.184 37.1835 270.504V275H35.7435ZM46.953 275.192C45.609 275.192 44.265 274.456 44.265 272.888C44.265 271.16 45.721 270.68 46.985 270.44L49.625 269.928C49.625 269.208 49.593 268.808 49.353 268.472C49.129 268.152 48.601 267.944 47.897 267.944C46.505 267.944 45.945 268.456 45.945 269.672L44.537 269.48C44.569 268.52 44.905 267.816 45.529 267.4C46.105 267.016 46.953 266.808 47.977 266.808C49.993 266.808 51.017 267.704 51.017 269.448V273.272C51.017 273.688 51.017 273.88 51.481 273.88C51.609 273.88 51.737 273.864 51.945 273.816L51.977 275C51.673 275.048 51.401 275.064 51.081 275.064C50.201 275.064 49.721 274.648 49.641 273.816C49.193 274.728 48.313 275.192 46.953 275.192ZM45.737 272.872C45.737 273.624 46.393 274.04 47.177 274.04C48.921 274.04 49.625 273.128 49.625 271.976V271L47.209 271.528C46.361 271.72 45.737 271.96 45.737 272.872ZM55.8199 275.08C54.3319 275.08 53.6759 274.504 53.6759 273.208V268.2H52.5239V267H53.6759V264.776H55.0999V267H56.7319V268.2H55.0999V273.16C55.0999 273.688 55.3399 273.784 55.9319 273.784C56.1079 273.784 56.4119 273.752 56.6679 273.704L56.6999 275C56.4439 275.048 56.1079 275.08 55.8199 275.08ZM59.8621 275L57.1901 267H58.7421L59.9901 271.272C60.0381 271.432 60.3741 272.648 60.6301 273.624C60.8061 272.84 61.0781 271.656 61.1741 271.272L62.2461 267H63.5901L64.6461 271.272C64.7741 271.8 64.9981 272.808 65.1741 273.624C65.4141 272.696 65.6221 271.912 65.8141 271.272L67.0941 267H68.6461L65.9741 275H64.4221L63.3501 270.872C63.2701 270.568 63.0621 269.576 62.9021 268.776C62.7581 269.528 62.5981 270.344 62.4701 270.872L61.4301 275H59.8621ZM73.2479 275.192C70.7519 275.192 69.2479 273.608 69.2479 271C69.2479 268.568 70.7679 266.808 73.2479 266.808C75.6959 266.808 77.2319 268.584 77.2319 271C77.2319 273.512 75.6479 275.192 73.2479 275.192ZM70.7999 271C70.7999 272.072 70.9919 272.92 71.5039 273.448C71.8879 273.848 72.4479 274.056 73.2479 274.056C74.0639 274.056 74.6399 273.816 75.0239 273.384C75.4879 272.856 75.6799 272.04 75.6799 271C75.6799 269.96 75.4879 269.128 75.0079 268.6C74.6239 268.184 74.0639 267.944 73.2479 267.944C72.4639 267.944 71.8879 268.152 71.5039 268.552C70.9919 269.08 70.7999 269.928 70.7999 271ZM78.8685 275V267H80.3085V268.408C80.5325 267.64 81.4765 266.92 82.7885 266.824C82.9165 266.808 83.2205 266.808 83.3325 266.808L83.3005 268.168C83.2045 268.152 83.0765 268.152 82.9325 268.152C81.4125 268.152 80.3085 268.632 80.3085 271.208V275H78.8685ZM84.5091 275V263.8H85.9491V270.312L89.2931 267H91.2451L88.0771 269.928L91.3891 275H89.7091L87.0691 270.888L85.9491 271.944V275H84.5091ZM95.1548 275.192C93.3628 275.192 91.7467 274.36 91.7628 272.376L93.0748 272.248C93.0588 273.368 93.8748 274.056 95.1228 274.056C96.4348 274.056 97.0908 273.608 97.0908 272.76C97.0908 271.848 95.6188 271.736 94.5148 271.448C93.2188 271.112 91.9388 270.728 91.9388 269.144C91.9388 267.48 93.4748 266.808 94.8988 266.808C96.5948 266.808 98.0668 267.48 98.2428 269.432L96.8988 269.64C96.8668 268.536 96.1468 267.944 94.8828 267.944C94.0988 267.944 93.2828 268.312 93.2828 269.048C93.2828 269.784 94.2428 269.992 95.2028 270.2C96.8028 270.536 98.4508 270.808 98.4508 272.68C98.4508 274.632 96.7708 275.192 95.1548 275.192ZM99.9116 275V273.304H101.528V275H99.9116ZM106.747 275.192C104.299 275.192 102.779 273.624 102.779 271C102.779 268.536 104.299 266.808 106.747 266.808C108.779 266.808 109.931 268.024 110.251 269.544L108.907 269.8C108.667 268.872 108.187 267.96 106.747 267.96C105.835 267.96 105.259 268.232 104.891 268.712C104.491 269.256 104.363 270.056 104.363 271C104.363 272.808 104.811 274.04 106.747 274.04C107.979 274.04 108.619 273.56 108.923 272.408L110.283 272.552C109.995 274.168 108.603 275.192 106.747 275.192ZM115.279 275.192C112.783 275.192 111.279 273.608 111.279 271C111.279 268.568 112.799 266.808 115.279 266.808C117.727 266.808 119.263 268.584 119.263 271C119.263 273.512 117.679 275.192 115.279 275.192ZM112.831 271C112.831 272.072 113.023 272.92 113.535 273.448C113.919 273.848 114.479 274.056 115.279 274.056C116.095 274.056 116.671 273.816 117.055 273.384C117.519 272.856 117.711 272.04 117.711 271C117.711 269.96 117.519 269.128 117.039 268.6C116.655 268.184 116.095 267.944 115.279 267.944C114.495 267.944 113.919 268.152 113.535 268.552C113.023 269.08 112.831 269.928 112.831 271ZM120.9 275V267H122.324V268.2C122.42 267.96 122.58 267.688 122.916 267.416C123.284 267.112 123.86 266.808 124.788 266.808C126.052 266.808 126.964 267.432 127.348 268.504C127.508 268.072 127.748 267.736 128.116 267.416C128.5 267.096 129.012 266.808 129.988 266.808C131.78 266.808 132.756 267.832 132.756 269.816V275H131.284V270.296C131.284 269.544 131.284 268.888 130.804 268.44C130.356 268.008 129.764 267.992 129.46 267.992C128.98 267.992 128.58 268.152 128.276 268.424C127.892 268.776 127.54 269.304 127.54 270.584V275H126.068V270.296C126.068 269.544 126.068 268.888 125.588 268.44C125.14 268.008 124.548 267.992 124.244 267.992C123.748 267.992 123.348 268.168 123.06 268.424C122.676 268.776 122.324 269.304 122.324 270.584V275H120.9ZM134.63 275V273.304H136.246V275H134.63ZM140.469 275.192C139.125 275.192 137.781 274.456 137.781 272.888C137.781 271.16 139.237 270.68 140.501 270.44L143.141 269.928C143.141 269.208 143.109 268.808 142.869 268.472C142.645 268.152 142.117 267.944 141.413 267.944C140.021 267.944 139.461 268.456 139.461 269.672L138.053 269.48C138.085 268.52 138.421 267.816 139.045 267.4C139.621 267.016 140.469 266.808 141.493 266.808C143.509 266.808 144.533 267.704 144.533 269.448V273.272C144.533 273.688 144.533 273.88 144.997 273.88C145.125 273.88 145.253 273.864 145.461 273.816L145.493 275C145.189 275.048 144.917 275.064 144.597 275.064C143.717 275.064 143.237 274.648 143.157 273.816C142.709 274.728 141.829 275.192 140.469 275.192ZM139.253 272.872C139.253 273.624 139.909 274.04 140.693 274.04C142.437 274.04 143.141 273.128 143.141 271.976V271L140.725 271.528C139.877 271.72 139.253 271.96 139.253 272.872ZM149.765 275.192C148.725 275.192 147.973 274.904 147.397 274.296C146.773 273.64 146.757 272.632 146.757 271.784V267H148.245V271.704C148.245 272.44 148.229 273.064 148.709 273.528C149.173 273.976 149.701 273.992 150.165 273.992C150.885 273.992 152.229 273.816 152.229 271.496V267H153.669V275H152.229V273.8C151.797 274.712 150.901 275.192 149.765 275.192Z" fill="white"/>
<path d="M995.328 275V263.8H999.232C1001.17 263.8 1003.42 264.024 1003.42 266.872C1003.42 267.96 1002.86 268.808 1002.02 269.272C1003.28 269.736 1003.86 270.52 1003.86 271.912C1003.86 274.824 1001.46 275 999.344 275H995.328ZM996.768 273.768H999.344C1000.93 273.768 1002.45 273.768 1002.45 271.912C1002.45 269.912 1000.64 269.912 999.424 269.912H996.768V273.768ZM996.768 268.664H999.104C1000.48 268.664 1002.02 268.648 1002.02 266.872C1002.02 265.064 1000.48 265.048 999.12 265.048H996.768V268.664ZM1008.53 275.192C1007.49 275.192 1006.74 274.904 1006.16 274.296C1005.54 273.64 1005.52 272.632 1005.52 271.784V267H1007.01V271.704C1007.01 272.44 1006.99 273.064 1007.47 273.528C1007.94 273.976 1008.47 273.992 1008.93 273.992C1009.65 273.992 1010.99 273.816 1010.99 271.496V267H1012.43V275H1010.99V273.8C1010.56 274.712 1009.67 275.192 1008.53 275.192ZM1014.54 275V267H1015.98V275H1014.54ZM1014.54 265.496V263.8H1015.98V265.496H1014.54ZM1018.09 275V263.8H1019.53V275H1018.09ZM1024.23 275.08C1022.74 275.08 1022.08 274.504 1022.08 273.208V268.2H1020.93V267H1022.08V264.776H1023.51V267H1025.14V268.2H1023.51V273.16C1023.51 273.688 1023.75 273.784 1024.34 273.784C1024.51 273.784 1024.82 273.752 1025.07 273.704L1025.11 275C1024.85 275.048 1024.51 275.08 1024.23 275.08ZM1034.09 275.192C1033.01 275.192 1032.15 274.744 1031.56 273.832V275H1030.12V263.8H1031.56V268.04C1032.17 267.192 1033.01 266.792 1034.13 266.792C1036.29 266.792 1037.77 268.472 1037.77 271C1037.77 273.608 1036.21 275.192 1034.09 275.192ZM1031.51 271.016C1031.51 273.032 1032.29 274.088 1033.83 274.088C1034.65 274.088 1035.21 273.848 1035.57 273.432C1036.04 272.888 1036.18 272.056 1036.18 271C1036.18 269.08 1035.59 267.928 1033.8 267.928C1032.95 267.928 1032.41 268.232 1032.07 268.696C1031.62 269.288 1031.51 270.168 1031.51 271.016ZM1040.25 278.28C1039.87 278.28 1039.43 278.232 1039.03 278.12L1039.07 276.776C1039.35 276.872 1039.69 276.952 1040.06 276.952C1040.65 276.952 1040.92 276.296 1041.45 274.936L1038.33 267H1039.87L1041.39 271.32C1041.58 271.864 1041.83 272.648 1042.09 273.448C1042.41 272.472 1042.59 271.96 1042.81 271.32L1044.35 267H1045.85L1042.59 275.736C1041.93 277.496 1041.35 278.28 1040.25 278.28ZM1052.06 275L1049.15 263.8H1050.68L1052.23 270.536C1052.67 272.408 1052.68 272.568 1052.84 273.288H1052.86C1053.03 272.6 1053.34 271.432 1053.58 270.536L1055.42 263.8H1056.89L1058.76 270.536C1059.1 271.752 1059.31 272.584 1059.48 273.288H1059.5C1059.64 272.6 1059.85 271.624 1060.09 270.536L1061.61 263.8H1063.15L1060.23 275H1058.71L1056.83 268.408C1056.55 267.464 1056.31 266.52 1056.14 265.816H1056.12C1055.95 266.552 1055.74 267.4 1055.45 268.424L1053.59 275H1052.06ZM1064.42 275V263.8H1065.86V268.2C1066.3 267.24 1067.2 266.808 1068.32 266.808C1069.38 266.808 1070.13 267.096 1070.7 267.704C1071.31 268.36 1071.33 269.368 1071.33 270.216V275H1069.84V270.296C1069.84 269.56 1069.86 268.936 1069.36 268.472C1068.91 268.024 1068.38 268.008 1067.94 268.008C1067.22 268.008 1065.86 268.184 1065.86 270.504V275H1064.42ZM1075.62 275.192C1074.28 275.192 1072.94 274.456 1072.94 272.888C1072.94 271.16 1074.39 270.68 1075.66 270.44L1078.3 269.928C1078.3 269.208 1078.26 268.808 1078.02 268.472C1077.8 268.152 1077.27 267.944 1076.57 267.944C1075.18 267.944 1074.62 268.456 1074.62 269.672L1073.21 269.48C1073.24 268.52 1073.58 267.816 1074.2 267.4C1074.78 267.016 1075.62 266.808 1076.65 266.808C1078.66 266.808 1079.69 267.704 1079.69 269.448V273.272C1079.69 273.688 1079.69 273.88 1080.15 273.88C1080.28 273.88 1080.41 273.864 1080.62 273.816L1080.65 275C1080.34 275.048 1080.07 275.064 1079.75 275.064C1078.87 275.064 1078.39 274.648 1078.31 273.816C1077.86 274.728 1076.98 275.192 1075.62 275.192ZM1074.41 272.872C1074.41 273.624 1075.06 274.04 1075.85 274.04C1077.59 274.04 1078.3 273.128 1078.3 271.976V271L1075.88 271.528C1075.03 271.72 1074.41 271.96 1074.41 272.872ZM1084.49 275.08C1083 275.08 1082.35 274.504 1082.35 273.208V268.2H1081.2V267H1082.35V264.776H1083.77V267H1085.4V268.2H1083.77V273.16C1083.77 273.688 1084.01 273.784 1084.6 273.784C1084.78 273.784 1085.08 273.752 1085.34 273.704L1085.37 275C1085.12 275.048 1084.78 275.08 1084.49 275.08ZM1092.1 275L1089.19 263.8H1090.73L1092.28 270.536C1092.71 272.408 1092.73 272.568 1092.89 273.288H1092.9C1093.08 272.6 1093.38 271.432 1093.62 270.536L1095.46 263.8H1096.94L1098.81 270.536C1099.14 271.752 1099.35 272.584 1099.53 273.288H1099.54C1099.69 272.6 1099.9 271.624 1100.14 270.536L1101.66 263.8H1103.19L1100.28 275H1098.76L1096.87 268.408C1096.6 267.464 1096.36 266.52 1096.18 265.816H1096.17C1095.99 266.552 1095.78 267.4 1095.5 268.424L1093.64 275H1092.1ZM1107.51 275.192C1105.02 275.192 1103.51 273.608 1103.51 271C1103.51 268.568 1105.03 266.808 1107.51 266.808C1109.96 266.808 1111.5 268.584 1111.5 271C1111.5 273.512 1109.91 275.192 1107.51 275.192ZM1105.07 271C1105.07 272.072 1105.26 272.92 1105.77 273.448C1106.15 273.848 1106.71 274.056 1107.51 274.056C1108.33 274.056 1108.91 273.816 1109.29 273.384C1109.75 272.856 1109.95 272.04 1109.95 271C1109.95 269.96 1109.75 269.128 1109.27 268.6C1108.89 268.184 1108.33 267.944 1107.51 267.944C1106.73 267.944 1106.15 268.152 1105.77 268.552C1105.26 269.08 1105.07 269.928 1105.07 271ZM1113.13 275V267H1114.57V268.408C1114.8 267.64 1115.74 266.92 1117.05 266.824C1117.18 266.808 1117.49 266.808 1117.6 266.808L1117.57 268.168C1117.47 268.152 1117.34 268.152 1117.2 268.152C1115.68 268.152 1114.57 268.632 1114.57 271.208V275H1113.13ZM1118.77 275V263.8H1120.21V270.312L1123.56 267H1125.51L1122.34 269.928L1125.65 275H1123.97L1121.33 270.888L1120.21 271.944V275H1118.77ZM1129.42 275.192C1127.63 275.192 1126.01 274.36 1126.03 272.376L1127.34 272.248C1127.32 273.368 1128.14 274.056 1129.39 274.056C1130.7 274.056 1131.36 273.608 1131.36 272.76C1131.36 271.848 1129.88 271.736 1128.78 271.448C1127.48 271.112 1126.2 270.728 1126.2 269.144C1126.2 267.48 1127.74 266.808 1129.16 266.808C1130.86 266.808 1132.33 267.48 1132.51 269.432L1131.16 269.64C1131.13 268.536 1130.41 267.944 1129.15 267.944C1128.36 267.944 1127.55 268.312 1127.55 269.048C1127.55 269.784 1128.51 269.992 1129.47 270.2C1131.07 270.536 1132.72 270.808 1132.72 272.68C1132.72 274.632 1131.04 275.192 1129.42 275.192ZM1134.18 275V273.304H1135.79V275H1134.18Z" fill="white"/>
</svg>
